<?xml version="1.0" encoding="UTF-8" standalone="no"?>
<svg
   xmlns:dc="http://purl.org/dc/elements/1.1/"
   xmlns:cc="http://creativecommons.org/ns#"
   xmlns:rdf="http://www.w3.org/1999/02/22-rdf-syntax-ns#"
   xmlns:svg="http://www.w3.org/2000/svg"
   xmlns="http://www.w3.org/2000/svg"
   xmlns:sodipodi="http://sodipodi.sourceforge.net/DTD/sodipodi-0.dtd"
   xmlns:inkscape="http://www.inkscape.org/namespaces/inkscape"
   style="font-style:normal;font-weight:normal;font-size:12px;font-family:Dialog;color-interpolation:auto;fill:#000000;fill-opacity:1;stroke:#000000;stroke-width:1;stroke-linecap:square;stroke-linejoin:miter;stroke-miterlimit:10;stroke-dasharray:none;stroke-dashoffset:0;stroke-opacity:1;color-rendering:auto;image-rendering:auto;shape-rendering:auto;text-rendering:auto"
   width="297mm"
   height="210mm"
   version="1.1"
   id="svg8295"
   sodipodi:docname="filename2.svg"
   inkscape:version="0.92.1 r15371">
  <metadata
     id="metadata8299">
    <rdf:RDF>
      <cc:Work
         rdf:about="">
        <dc:format>image/svg+xml</dc:format>
        <dc:type
           rdf:resource="http://purl.org/dc/dcmitype/StillImage" />
        <dc:title></dc:title>
      </cc:Work>
    </rdf:RDF>
  </metadata>
  <sodipodi:namedview
     pagecolor="#ffffff"
     bordercolor="#666666"
     borderopacity="1"
     objecttolerance="10"
     gridtolerance="10"
     guidetolerance="10"
     inkscape:pageopacity="0"
     inkscape:pageshadow="2"
     inkscape:window-width="1920"
     inkscape:window-height="1017"
     id="namedview8297"
     showgrid="false"
     inkscape:document-units="mm"
     units="mm"
     inkscape:zoom="0.8809855"
     inkscape:cx="666.56126"
     inkscape:cy="373.40432"
     inkscape:window-x="-8"
     inkscape:window-y="-8"
     inkscape:window-maximized="1"
     inkscape:current-layer="svg8295" />
  <!--Generated by the Batik Graphics2D SVG Generator-->
  <defs
     id="genericDefs" />
  <g
     id="g8293"
     transform="matrix(0.59932779,0,0,0.59932779,-7.6932992,207.59901)">
    <g
       id="g8291">
      <path
         style="fill:none"
         d="m 609.1677,351.8186 c -0.4358,-0.5045 -2.8811,-4.2633 -1.7823,-4.8458 1.0989,-0.5825 8.2646,-0.447 8.3756,1.3507 0.1111,1.7977 -5.5587,10.3226 -7.7094,9.4356 -2.1506,-0.887 -7.4485,-12.9382 -5.1942,-14.7578 2.2542,-1.8197 18.1352,0.4203 18.7194,3.8399 0.5842,3.4197 -11.4118,18.0496 -15.2143,16.678 -3.8024,-1.3716 -11.1141,-21.9137 -7.6008,-24.9078 3.5133,-2.9941 27.7277,1.8411 28.6807,6.9431 0.953,5.1019 -17.5246,25.5804 -22.9628,23.6686 -5.4382,-1.9119 -14.4791,-31.0136 -9.6668,-35.14 4.8122,-4.1264 37.2748,3.5843 38.5401,10.3815 1.2652,6.7971 -23.8922,32.9086 -30.9486,30.4012 -7.0565,-2.5075 -17.5399,-40.2304 -11.3901,-45.4459 6.1499,-5.2155 46.7686,5.6489 48.2892,14.1527 1.5206,8.5037 -30.5096,40.0277 -39.1652,36.8699 -8.6557,-3.1578 -20.2941,-49.5561 -12.769,-55.8166 7.5251,-6.2605 56.2006,8.0329 57.9196,18.2533 1.719,10.2205 -37.3711,46.9317 -47.6057,43.0693 -10.2346,-3.8624 -22.7389,-58.9833 -13.8021,-66.2437 8.9369,-7.2605 65.563,10.7352 67.423,22.6809 1.8599,11.9457 -44.4715,53.6141 -56.2633,48.9933 -11.7918,-4.6209 -24.8715,-68.5041 -14.4876,-76.7185 10.3839,-8.2144 74.8478,13.754 76.7911,27.4321 1.9433,13.6781 -51.8055,60.0691 -65.1314,54.6366 -13.326,-5.4326 -26.6897,-78.1107 -14.8244,-87.2321 11.8653,-9.1214 84.047,17.0874 86.0158,32.5036 1.9688,15.4162 -59.3672,66.2907 -74.2028,59.9937 -14.8357,-6.297 -28.191,-87.7951 -14.8113,-97.7757 13.3796,-9.9807 93.1525,20.7334 95.089,37.8919 1.9364,17.1586 -67.1509,72.273 -83.4705,65.0594 -16.3196,-7.2135 -29.3735,-97.5495 -14.4476,-108.3407 14.9258,-10.7912 102.1567,24.6897 104.0026,43.5934 1.8459,18.9037 -75.1505,78.0103 -92.9271,69.8287 -17.7766,-8.1816 -30.2351,-107.3658 -13.7324,-118.9182 16.5026,-11.5523 111.0514,28.9539 112.7487,49.6041 1.6972,20.6501 -83.3601,83.4972 -102.5652,74.2968 -19.2052,-9.2004 -30.7746,-117.2361 -12.6656,-129.4993 18.109,-12.2633 119.829,33.5234 121.3195,55.9198 1.4903,22.3965 -91.7734,88.7283 -112.3774,78.4589 -20.604,-10.2694 -30.99,-127.1522 -11.2465,-140.0753 19.7434,-12.9231 128.4819,38.3954 129.707,62.5366 1.2252,24.1411 -100.3841,93.6981 -122.356,82.3104 -21.9719,-11.3878 -30.8802,-137.1059 -9.4754,-150.6372 21.4047,-13.5312 137.0022,43.5669 137.9039,69.4498 0.9017,25.8827 -109.1859,98.4018 -132.4935,85.847 -23.3076,-12.5549 -30.4438,-147.0893 -7.352,-161.1761 23.0917,-14.0869 145.3822,49.0349 145.9023,76.6547 0.52,27.6199 -118.1722,102.8343 -142.782,89.0645 -24.6098,-13.7698 -29.68,-157.0939 -4.877,-171.6833 24.8029,-14.5894 153.6146,54.796 153.6948,84.147 0.0803,29.3509 -127.3361,106.9906 -153.2135,91.9588 -25.8774,-15.0319 -28.5881,-167.112 -2.0508,-182.15 26.5372,-15.0381 161.6918,60.8468 161.2742,91.9214 -0.4176,31.0746 -136.6711,110.8662 -163.7801,94.5261 -27.1091,-16.3402 -27.1673,-177.1348 1.1259,-192.5672 28.2931,-15.4323 169.6066,67.1837 168.6331,99.973 -0.9734,32.7893 -146.1703,114.4565 -174.4739,96.7626 -28.3036,-17.6939 -25.4171,-187.1544 4.6523,-202.926 30.0695,-15.7717 177.3514,73.8027 175.7644,108.2963 -1.5871,34.4936 -155.8267,117.7571 -185.2865,98.665 -29.4599,-19.0922 -23.3376,-197.1628 8.5271,-213.2179 31.8647,-16.0551 184.9192,80.7013 182.6609,116.8871 -2.2585,36.1859 -165.6351,120.7622 -196.2113,100.2278 -30.5764,-20.5344 -20.9244,-207.1521 12.7534,-223.4341 33.6777,-16.282 192.3006,87.8774 189.313,125.7422 -2.9877,37.8649 -175.5873,123.4667 -207.2394,101.4471 -31.6521,-22.0197 -18.1804,-217.113 17.3268,-233.565 35.5071,-16.4521 199.4904,95.3235 195.7162,134.8527 -3.7742,39.5291 -185.6752,125.8688 -218.3613,102.3222 -32.6861,-23.5467 -15.1069,-227.0374 22.2445,-243.6023 37.3514,-16.565 206.4814,103.0354 201.864,144.2127 C 748.6113,406.0612 557.3373,492.8489 523.66,467.7345 489.9827,442.62 511.9555,230.8174 551.1646,214.1972 c 39.2091,-16.6202 213.267,111.0086 207.7498,153.8161 -5.5172,42.8076 -206.2284,129.7512 -240.853,103.0292 -34.6246,-26.722 -7.9735,-246.7439 33.1052,-263.3613 41.0788,-16.6174 219.8402,119.238 213.3672,163.6568 -6.4731,44.4188 -216.679,131.2243 -252.2059,102.8561 -35.527,-28.3683 -3.915,-256.5095 39.044,-273.0657 42.959,-16.5562 226.1945,127.7188 218.7098,173.7284 -7.4848,46.0095 -227.235,132.3809 -263.6183,102.3287 -36.3833,-30.0521 0.47,-266.2055 45.3184,-282.6417 44.8483,-16.4363 232.3231,136.446 223.7714,184.0243 -8.5517,47.5783 -237.8891,133.218 -275.0817,101.4454 -37.1927,-31.7726 5.1804,-275.824 51.9258,-292.0812 46.7454,-16.2572 238.2197,145.4143 228.5462,194.538 C 771.27,431.594 532.3102,516.2029 494.3562,482.6745 456.4022,449.1459 504.5709,197.3179 553.2195,181.2992 601.868,165.2804 797.0974,335.9175 786.2477,386.5618 775.398,437.2062 526.7878,520.4839 488.1214,485.1651 449.455,449.8464 503.6926,190.3701 554.2492,174.6494 604.8058,158.9286 803.5405,338.7019 791.4608,390.8407 779.3811,442.9796 521.1,524.6243 481.7711,487.4822 442.4422,450.3401 503.0193,183.3509 555.4872,167.988 c 52.4678,-15.3628 254.454,173.7113 241.091,227.3171 -13.3629,53.6058 -281.328,133.315 -321.2687,94.3175 -39.9407,-38.9975 27.2437,-313.3573 81.6246,-328.3022 54.3809,-14.945 259.36,183.5887 244.6611,238.6325 -14.699,55.0439 -292.3538,132.5139 -332.8545,91.6303 -40.5008,-40.8836 33.5554,-322.4649 89.8498,-336.9318 56.2944,-14.4668 264.0033,193.6791 247.9163,250.1307 -16.0869,56.4516 -303.4297,131.3781 -344.438,88.5789 -41.0083,-42.7993 40.1814,-331.4461 98.388,-345.3745 58.2066,-13.9285 268.3781,203.976 250.8517,261.8038 -17.5264,57.8277 -314.5476,129.906 -356.0102,85.1628 -41.4625,-44.7433 47.1188,-340.2929 107.235,-353.6225 60.1162,-13.3297 272.479,214.4734 253.4624,273.6445 -19.0166,59.171 -325.6996,128.0959 -367.5621,81.3817 -41.8626,-46.7144 54.3649,-348.9973 116.3867,-361.6677 62.0216,-12.6704 276.3003,225.165 255.7435,285.6451 -20.5569,60.48 -336.8771,125.9462 -379.0848,77.235 -42.2077,-48.7111 61.9171,-357.5514 125.8386,-369.5021 63.9215,-11.9507 279.8369,236.0444 257.6906,297.7978 -22.1464,61.7535 -348.072,123.4555 -390.5691,72.7231 -42.4971,-50.7326 69.7721,-365.9476 135.5864,-377.1182 65.8142,-11.1705 283.0834,247.1047 259.299,310.0948 -23.7846,62.9901 -359.2759,120.6228 -402.006,67.8458 -42.7302,-52.777 77.9268,-374.1779 145.6251,-384.5079 67.6982,-10.33 286.0349,258.3394 260.5646,322.528 -25.4704,64.1886 -370.4804,117.4471 -413.3864,62.6037 -42.9061,-54.8434 86.3777,-382.2348 155.95,-391.6638 C 645.644,98.9413 864.7581,378.1121 837.555,443.4598 810.3519,508.8076 455.8778,557.3871 412.8536,500.4569 369.8293,443.5267 507.975,110.3465 579.4095,101.8786 650.8441,93.4107 870.4424,383.1831 841.4606,449.6494 812.4788,516.1158 448.6027,559.7126 405.5187,500.6765 362.4347,441.6403 509.6728,102.8791 582.9565,95.4324 656.2401,87.9857 876.0265,388.4533 845.2207,455.9963 814.4149,523.5394 441.2067,561.8506 398.122,500.6907 355.0372,439.5309 511.5937,95.4026 586.7119,89.037 c 75.1182,-6.3655 294.7932,304.8836 262.1193,373.4604 -32.674,68.5768 -415.137,101.3002 -458.163,38.0003 -43.026,-63.3 123.0703,-412.5754 200.007,-417.8001 76.9366,-5.2247 296.1982,316.8853 261.6128,386.4516 -34.5855,69.5664 -426.2186,96.4012 -469.1257,30.9463 C 340.2552,434.6405 516.1078,80.4438 594.8453,76.4194 673.5828,72.3949 892.1262,405.4381 855.5869,475.9486 819.0476,546.4591 418.3367,567.1058 375.6092,499.4823 332.8816,431.8588 518.7023,72.9725 599.2215,70.2075 679.7407,67.4425 897.2588,411.4839 858.7242,482.892 820.1896,554.3002 410.5008,568.4605 368.0139,498.6564 325.527,428.8522 521.5222,65.5139 603.8026,64.0671 686.0829,62.6204 902.2658,417.7178 861.6957,489.976 821.1255,562.2341 402.5661,569.6117 360.3814,497.6163 318.1967,425.6209 524.5679,58.0733 608.5873,58.0034 692.6067,57.9335 907.1429,424.1372 864.4978,497.1967 821.8527,570.2562 394.5375,570.5564 352.7169,496.3605 310.8964,422.1647 527.8394,50.6564 613.5744,52.0215 c 85.735,1.365 298.3104,378.7181 253.5522,452.5292 -44.7582,73.811 -480.7072,66.741 -522.1012,-9.663 C 303.6313,418.4837 531.3369,43.2686 618.7625,46.1263 706.188,48.984 916.4869,437.5222 869.5785,512.0339 822.6701,586.5456 378.2168,571.8151 337.312,493.1967 296.4073,414.5782 535.0603,35.9154 624.15,40.3231 c 89.0896,4.4076 296.7946,404.159 247.7,479.3195 -49.0947,75.1605 -501.9155,52.4811 -542.2679,-28.3565 -40.3525,-80.8376 209.4272,-462.6837 300.1531,-456.6692 90.7259,6.0144 295.518,416.9994 244.2022,492.7558 -51.3158,75.7564 -512.36,44.8425 -552.0968,-38.2175 C 282.1038,406.0952 543.1837,21.3351 635.5165,29.0126 727.8492,36.6901 929.4078,458.9218 875.8373,535.2202 822.2667,611.5186 353.1505,572.0872 314.093,486.803 275.0354,401.5189 547.5829,14.1189 641.4918,23.5153 735.4008,32.9116 933.4043,466.3954 877.5464,543.181 821.6886,619.9666 344.659,571.7372 306.3445,484.2287 268.03,396.7202 552.2065,6.9595 647.6594,18.1299 743.1122,29.3002 937.238,474.0339 879.0615,551.2508 820.885,628.4677 336.1078,571.1631 298.6004,481.4316 261.093,391.7 557.0537,-0.1377 654.0169,12.8613 750.9801,25.8602 940.9045,481.8336 880.3794,559.4253 819.8542,637.0169 327.502,570.363 290.8659,478.4111 254.2297,386.4593 562.1238,-7.1672 660.5623,7.7144 759.0007,22.5959 944.3996,489.7914 881.497,567.7002 818.5944,645.609 318.8471,569.3347 283.1465,475.1669 247.4458,380.9992 567.4156,-14.1234 667.2931,2.6939 767.1705,19.5113 947.7189,497.9034 882.4113,576.0709 817.1037,654.2384 310.1481,568.0763 275.4474,471.6986 240.7467,375.321 572.9283,-21.0009 674.207,-2.1952 775.4857,16.6105 950.8582,506.1662 883.1194,584.5331 815.3806,662.8999 301.4104,566.5863 267.7741,468.006 234.1377,369.4258 578.6607,-27.7943 681.3015,-6.9483 783.9422,13.8977 953.8135,514.5758 883.6186,593.082 813.4237,671.5883 292.6393,564.8629 260.1319,464.0891 227.6244,363.3152 584.6113,-34.4981 688.5737,-11.5608 792.5361,11.3766 956.5806,523.1283 883.9061,601.7131 811.2315,680.2979 283.8403,562.9045 252.5262,459.9477 221.2121,356.9909 590.7789,-41.1068 696.0211,-16.0278 801.2633,9.0511 959.1556,531.8198 883.9792,610.4215 808.8028,689.0232 275.0188,560.7098 244.9625,455.5822 214.9061,350.4544 597.162,-47.6151 703.6408,-20.345 810.1196,6.9251 961.5347,540.6464 883.8356,619.2026 806.1365,697.7589 266.1803,558.2776 237.446,450.9926 208.7117,343.7076 603.7586,-54.0175 711.4297,-24.5077 819.1009,5.0021 963.7141,549.6035 883.4729,628.0514 803.2316,706.4993 257.3302,555.6067 229.9822,446.1796 202.6342,336.7524 610.5673,-60.3088 719.3849,-28.5115 828.2026,3.2858 965.6899,558.6873 882.8885,636.9631 800.0872,715.239 248.4741,552.6959 222.5766,441.1434 196.6791,329.5909 617.5858,-66.4835 727.5032,-32.3519 837.4205,1.7796 967.4586,567.8933 882.0806,645.9327 796.7025,723.9722 239.6177,549.5444 215.2345,435.8848 190.8513,322.2253 624.8124,-72.5364 735.7812,-36.0247 846.7499,0.487 969.0168,577.2169 881.0468,654.9551 793.0768,732.6933 230.7664,546.1513 207.9613,430.4045 185.1561,314.6578 632.245,-78.4624 744.2156,-39.5256 856.1863,-0.5888 970.3608,586.6538 879.7853,664.0253 789.2097,741.3967 221.9261,542.516 200.7624,424.7034 179.5987,306.8908 639.881,-84.2561 752.803,-42.8503 865.725,-1.4445 971.4874,596.1994 878.2941,673.1382 785.1008,750.077 213.1022,538.6378 193.6432,418.7824 174.1842,298.9269 647.7184,-89.9123 761.5397,-45.9946 875.3611,-2.0769 972.3932,605.8489 876.5715,682.2885 780.7497,758.728 204.3006,534.5164 186.609,412.6426 168.9175,290.7688 655.7544,-95.426 770.4222,-48.9545 885.09,-2.4831 973.0753,615.5978 874.6158,691.4711 776.1563,767.3444 195.5268,530.1514 179.6653,406.2852 163.8037,282.4191 663.9865,-100.792 779.4465,-51.7261 894.9066,-2.6602 973.5303,625.4409 872.4254,700.6806 771.3205,775.9203 186.7866,525.5427 172.8173,399.7117 158.8479,273.8807 672.4121,-106.0054 788.6091,-54.3054 904.806,-2.6053 973.7554,635.3737 869.999,709.9118 766.2426,784.45 178.0858,520.69 166.0703,392.9233 154.0547,265.1566 681.0282,-111.0611 797.9057,-56.6884 914.7832,-2.3158 973.7479,645.3909 867.3352,719.1593 760.9225,792.9277 169.4301,515.5936 159.4297,385.9218 149.4292,256.25 689.8319,-115.9542 807.3325,-58.8715 924.833,-1.7888 973.5047,655.4877 864.4328,728.4177 755.3608,801.3477 160.8252,510.2534 152.9006,378.7087 144.976,247.1639 698.8202,-120.6798 816.8852,-60.851 934.9502,-1.0221 973.0234,665.6587 861.2906,737.6815 749.5579,809.7043 152.2769,504.67 146.4885,371.2859 140.7,237.9018 707.9899,-125.2331 826.5598,-62.6232 945.1296,-0.0132 972.3014,675.899 857.9078,746.9454 743.5143,817.9918 143.791,498.8436 140.1984,363.6553 136.6057,228.4669 717.3376,-129.6093 836.3518,-64.1846 955.366,1.2402 971.3362,686.2032 854.2834,756.2039 737.2307,826.2045 135.3733,492.7748 134.0356,355.8189 132.6978,218.8629 726.86,-133.8039 846.257,-65.5318 965.6539,2.7403 970.1254,696.5662 850.4167,765.4513 730.7081,834.3364 127.0294,486.4643 128.0051,347.7789 128.9808,209.0934 736.5537,-137.812 856.2708,-66.6614 975.9878,4.4891 968.6669,706.9799 846.3071,774.6821 723.9473,842.3844 118.7691,479.9304 122.1118,339.5524 125.4545,199.1744 746.3828,-141.6388 866.3631,-67.5859 986.3434,6.467 966.9943,717.4125 841.9937,783.8697 716.9931,850.327 110.6014,473.185 116.3595,331.1574 122.1176,189.1299 756.3623,-145.2745 876.5421,-68.2957 996.7219,8.6831 965.0696,727.8865 837.4382,793.0303 709.8066,858.1741 102.5235,466.2021 110.7531,322.567 118.9828,178.9319 766.5014,-148.7123 886.8159,-68.7803 1007.1304,11.1516 962.8931,738.3979 832.6401,802.1586 702.3871,865.9193 94.5411,458.9829 105.2977,313.7837 116.0543,168.5845 776.796,-151.9477 897.1797,-69.0368 1017.5634,13.874 960.463,748.941 827.5995,811.2488 694.7359,873.5566 86.6599,451.5286 99.9982,304.8101 113.3364,158.0916 787.2423,-154.9765 907.6287,-69.0623 1028.015,16.852 957.7777,759.5103 822.3162,820.2955 686.8546,881.0807 78.8856,443.8407 94.8593,295.6491 110.8329,147.4576 797.8362,-157.7946 918.158,-68.854 1038.4799,20.0867 954.8356,770.1 816.7903,829.293 678.7449,888.4859 71.2237,435.9207 89.8858,286.3036 108.5479,136.6866 808.5735,-160.3979 928.7628,-68.4092 1048.9521,23.5795 951.6353,780.7048 811.0219,838.2358 670.4085,895.7667 63.6799,427.7701 85.0826,276.7766 106.4853,125.783 819.4498,-162.7825 939.438,-67.7255 1059.4261,27.3315 948.1754,791.3187 805.0115,847.1182 661.8475,902.9176 56.2596,419.3907 80.4542,267.071 104.6487,114.7513 830.4611,-164.9442 950.1787,-66.8003 1069.8962,31.3437 944.455,801.9363 798.7594,855.9347 653.0638,909.9331 48.9686,410.7845 76.0053,257.1903 103.042,103.596 841.6028,-166.8794 960.9796,-65.6312 1080.3564,35.617 940.4727,812.5514 792.2662,864.6795 644.0597,916.8076 41.8122,401.9535 71.7405,247.1376 101.6687,92.3217 852.8703,-168.5843 971.8357,-64.216 1090.801,40.1522 936.2278,823.1584 785.5326,873.3472 634.8373,923.536 34.796,392.8997 67.6642,236.9165 100.5323,80.9332 864.259,-170.0553 982.7416,-62.5526 1101.2241,44.95 931.7194,833.7516 778.5593,881.9321 625.3992,930.1126 27.9254,383.6255 63.7809,226.5304 99.6364,69.4352 875.7644,-171.2887 993.6921,-60.6389 1111.6199,50.0108 926.9466,844.325 771.3472,890.4286 615.7477,936.5323 21.2059,374.1331 60.0951,215.9829 98.9842,57.8326 887.3815,-172.281 1004.6819,-58.473 1121.9823,55.3351 921.9092,854.8727 763.8974,898.8311 605.8856,942.7896 14.6428,364.4252 56.6109,205.2779 98.5789,46.1305 899.1056,-173.029 1015.7056,-56.0529 1132.3055,60.9231 916.6065,865.3887 756.2111,907.134 595.8156,948.8794 8.2415,354.5042 53.3326,194.419 98.4237,34.3338 910.9315,-173.5293 1026.7576,-53.3771 1142.5837,66.775 911.0382,875.8672 748.2894,915.3318 585.5405,954.7963 2.0072,344.3729 50.2645,183.4103 98.5217,22.4477 922.8543,-173.7787 1037.8325,-50.4439 1152.8108,72.8908 905.2042,886.3022 740.1339,923.4188 575.0635,960.5355 -4.0547,334.0341 47.4105,172.2557 98.8756,10.4773 934.8689,-173.7741 1048.9248,-47.2518 1162.9807,79.2705 899.1043,896.6877 731.746,931.3896 564.3877,966.0916 -9.9391,323.4909 44.7747,160.9594 99.4885,-1.5721 946.9701,-173.5126 1060.0289,-43.7994 1173.0878,85.9138 892.7386,907.0178 723.1274,939.2386 553.5161,971.4595 -15.641,312.7462 42.361,149.5256 100.363,-13.6951 959.1527,-172.9913 1071.1392,-40.0854 1183.1256,92.8204 886.1074,917.2864 714.2798,946.9604 542.4521,976.6344 -21.1551,301.8033 40.1733,137.9585 101.5017,-25.8864 971.4114,-172.2073 1082.25,-36.1088 1193.0886,99.9897 879.2107,927.4875 705.205,954.5494 531.1993,981.6113 -26.4763,290.6655 38.2155,126.2626 102.9072,-38.1404 983.7405,-171.158 1093.3555,-31.8684 1202.9705,107.4212 872.0491,937.6151 695.9052,962.0002 519.761,986.3854 -31.5998,279.3362 36.491,114.4423 104.5818,-50.4517 996.1348,-169.8409 1104.4501,-27.3634 1212.7654,115.1142 864.6233,947.6633 686.3823,969.3075 508.1412,990.9517 -36.5207,267.8189 35.0036,102.5022 106.5279,-62.8145 1008.5889,-168.2534 1115.528,-22.5928 1222.467,123.0678 856.9337,957.6258 676.6386,976.4657 496.3434,995.3057 -41.234,256.1172 33.7568,90.4469 108.7476,-75.2234 1021.0967,-166.3934 1126.5834,-17.5562 1232.0701,131.2809 848.9814,967.4968 666.6765,983.4697"
         id="path8289"
         inkscape:connector-curvature="0" />
    </g>
  </g>
</svg>
